<svg width="131" height="136" viewBox="0 0 131 136" fill="none" xmlns="http://www.w3.org/2000/svg">
<path fill-rule="evenodd" clip-rule="evenodd" d="M56.9763 4.96797C57.7221 2.79061 59.0972 1.20048 60.7622 0.197566C57.9676 26.1656 56.5171 46.5471 56.3027 65.4939C40.0868 65.1274 23.152 63.7038 2.41699 61.1896C3.21629 60.4235 4.1929 59.7821 5.3468 59.3208L39.7806 45.555C42.2039 44.5862 44.0841 42.6089 44.9297 40.14L56.9763 4.96797ZM0 69.9188C0.655131 72.4846 2.4374 74.7926 5.34681 75.9557L39.7806 89.7215C42.2039 90.6903 44.0841 92.6676 44.9297 95.1365L56.9763 130.309C57.7174 132.472 59.0801 134.056 60.7312 135.06C57.9991 112.532 56.4788 93.9163 56.2939 74.4534C39.3779 74.0791 21.7168 72.5796 0 69.9188ZM65.2528 74.5465C65.4458 93.998 67.0001 112.576 69.7821 135.283C71.6066 134.298 73.1264 132.64 73.9248 130.309L85.9714 95.1365C86.817 92.6676 88.6973 90.6903 91.1205 89.7215L125.554 75.9557C128.625 74.728 130.441 72.2246 131 69.4888C130.647 69.6318 130.269 69.7316 129.873 69.7811C104.852 72.9092 85.1633 74.5178 65.2528 74.5465ZM128.234 60.9587C127.483 60.2943 126.59 59.7349 125.554 59.3208L91.1205 45.555C88.6973 44.5862 86.817 42.6089 85.9714 40.14L73.9248 4.96798C73.128 2.64168 71.6128 0.985683 69.7932 0C66.9463 26.2482 65.4739 46.6626 65.2597 65.589C84.656 65.56 103.836 63.997 128.234 60.9587Z" fill="url(#paint0_radial_213_104)"/>
<defs>
<radialGradient id="paint0_radial_213_104" cx="0" cy="0" r="1" gradientUnits="userSpaceOnUse" gradientTransform="translate(65.4999 67.6413) rotate(90.865) scale(49.347 47.7855)">
<stop stop-color="#298651"/>
<stop offset="1" stop-color="#BEEDD2"/>
</radialGradient>
</defs>
</svg>
